REM DIRINDEX 1\2\6,1\2\7,1\2\8,1\3\9,1\3\10,1\3\11,1\4\12,1\4\13,1\4\14,1\5\15,1\5\16,1\5\17,1\5\18
REM DIRNAME folder01,folder02,folder03,folder04,folder05,folder06,folder07,folder08,folder09,folder10,folder11,folder12,folder13,folder14,folder15,folder16,folder17,folder18
TITLE ""
FILE "2Q_t_0370-0387.mp3" MP3
  TRACK 01 AUDIO
    TITLE "13:cjc019_2797"
    INDEX 01 00:00:00
  TRACK 02 AUDIO
    TITLE "0:"
    INDEX 01 00:01:28
  TRACK 03 AUDIO
    TITLE "14:cjc019_2798"
    INDEX 01 00:02:06
  TRACK 04 AUDIO
    TITLE "0:"
    INDEX 01 00:04:09
  TRACK 05 AUDIO
    TITLE "13:cjc019_2799"
    INDEX 01 00:04:64
  TRACK 06 AUDIO
    TITLE "0:"
    INDEX 01 00:06:16
  TRACK 07 AUDIO
    TITLE "14:cjc019_2800"
    INDEX 01 00:06:69
  TRACK 08 AUDIO
    TITLE "0:"
    INDEX 01 00:08:17
  TRACK 09 AUDIO
    TITLE "13:cjc019_2801"
    INDEX 01 00:09:00
  TRACK 10 AUDIO
    TITLE "0:"
    INDEX 01 00:10:21
  TRACK 11 AUDIO
    TITLE "14:cjc019_2802"
    INDEX 01 00:11:01
  TRACK 12 AUDIO
    TITLE "0:"
    INDEX 01 00:12:44
  TRACK 13 AUDIO
    TITLE "13:cjc019_2803"
    INDEX 01 00:13:22
  TRACK 14 AUDIO
    TITLE "0:"
    INDEX 01 00:14:49
  TRACK 15 AUDIO
    TITLE "14:cjc019_2804"
    INDEX 01 00:15:36
  TRACK 16 AUDIO
    TITLE "0:"
    INDEX 01 00:20:18
  TRACK 17 AUDIO
    TITLE "13:cjc019_2805"
    INDEX 01 00:20:73
  TRACK 18 AUDIO
    TITLE "0:"
    INDEX 01 00:22:34
  TRACK 19 AUDIO
    TITLE "14:cjc019_2806"
    INDEX 01 00:23:18
  TRACK 20 AUDIO
    TITLE "0:"
    INDEX 01 00:24:74
  TRACK 21 AUDIO
    TITLE "13:cjc019_2807"
    INDEX 01 00:25:58
  TRACK 22 AUDIO
    TITLE "0:"
    INDEX 01 00:27:00
  TRACK 23 AUDIO
    TITLE "14:cjc019_2808"
    INDEX 01 00:27:53
  TRACK 24 AUDIO
    TITLE "0:"
    INDEX 01 00:28:70
  TRACK 25 AUDIO
    TITLE "13:cjc019_2809"
    INDEX 01 00:29:50
  TRACK 26 AUDIO
    TITLE "0:"
    INDEX 01 00:31:10
  TRACK 27 AUDIO
    TITLE "14:cjc019_2810"
    INDEX 01 00:31:67
  TRACK 28 AUDIO
    TITLE "0:"
    INDEX 01 00:33:05
  TRACK 29 AUDIO
    TITLE "13:cjc019_2811"
    INDEX 01 00:33:58
  TRACK 30 AUDIO
    TITLE "0:"
    INDEX 01 00:35:02
  TRACK 31 AUDIO
    TITLE "14:cjc019_2812"
    INDEX 01 00:35:63
  TRACK 32 AUDIO
    TITLE "0:"
    INDEX 01 00:38:12
  TRACK 33 AUDIO
    TITLE "13:cjc019_2813"
    INDEX 01 00:38:65
  TRACK 34 AUDIO
    TITLE "0:"
    INDEX 01 00:40:17
  TRACK 35 AUDIO
    TITLE "14:cjc019_2814"
    INDEX 01 00:40:73
  TRACK 36 AUDIO
    TITLE "0:"
    INDEX 01 00:42:19
  TRACK 37 AUDIO
    TITLE "13:cjc019_2815"
    INDEX 01 00:42:66
  TRACK 38 AUDIO
    TITLE "0:"
    INDEX 01 00:44:03
  TRACK 39 AUDIO
    TITLE "14:cjc019_2816"
    INDEX 01 00:44:65
  TRACK 40 AUDIO
    TITLE "0:"
    INDEX 01 00:47:64
  TRACK 41 AUDIO
    TITLE "13:cjc019_2817"
    INDEX 01 00:48:38
  TRACK 42 AUDIO
    TITLE "0:"
    INDEX 01 00:50:17
  TRACK 43 AUDIO
    TITLE "14:cjc019_2818"
    INDEX 01 00:51:07
  TRACK 44 AUDIO
    TITLE "0:"
    INDEX 01 00:52:30
  TRACK 45 AUDIO
    TITLE "13:cjc019_2819"
    INDEX 01 00:53:08
  TRACK 46 AUDIO
    TITLE "0:"
    INDEX 01 00:54:54
  TRACK 47 AUDIO
    TITLE "14:cjc019_2820"
    INDEX 01 00:55:40
  TRACK 48 AUDIO
    TITLE "0:"
    INDEX 01 00:56:59
  TRACK 49 AUDIO
    TITLE "13:cjc019_2821"
    INDEX 01 00:57:37
  TRACK 50 AUDIO
    TITLE "0:"
    INDEX 01 00:58:67
  TRACK 51 AUDIO
    TITLE "14:cjc019_2822"
    INDEX 01 00:59:47
  TRACK 52 AUDIO
    TITLE "0:"
    INDEX 01 01:02:22
  TRACK 53 AUDIO
    TITLE "13:cjc019_2823"
    INDEX 01 01:02:71
  TRACK 54 AUDIO
    TITLE "0:"
    INDEX 01 01:04:31
  TRACK 55 AUDIO
    TITLE "14:cjc019_2824"
    INDEX 01 01:05:11
  TRACK 56 AUDIO
    TITLE "0:"
    INDEX 01 01:07:49
  TRACK 57 AUDIO
    TITLE "13:cjc019_2825"
    INDEX 01 01:08:25
  TRACK 58 AUDIO
    TITLE "0:"
    INDEX 01 01:09:52
  TRACK 59 AUDIO
    TITLE "14:cjc019_2826"
    INDEX 01 01:10:31
  TRACK 60 AUDIO
    TITLE "0:"
    INDEX 01 01:12:68
  TRACK 61 AUDIO
    TITLE "13:cjc019_2827"
    INDEX 01 01:13:44
  TRACK 62 AUDIO
    TITLE "0:"
    INDEX 01 01:14:57
  TRACK 63 AUDIO
    TITLE "14:cjc019_2828"
    INDEX 01 01:15:54
  TRACK 64 AUDIO
    TITLE "0:"
    INDEX 01 01:19:50
  TRACK 65 AUDIO
    TITLE "13:cjc019_2829"
    INDEX 01 01:20:32
  TRACK 66 AUDIO
    TITLE "0:"
    INDEX 01 01:21:45
  TRACK 67 AUDIO
    TITLE "14:cjc019_2830"
    INDEX 01 01:22:35
  TRACK 68 AUDIO
    TITLE "0:"
    INDEX 01 01:24:59
  TRACK 69 AUDIO
    TITLE "13:cjc019_2831"
    INDEX 01 01:25:37
  TRACK 70 AUDIO
    TITLE "0:"
    INDEX 01 01:26:54
  TRACK 71 AUDIO
    TITLE "14:cjc019_2832"
    INDEX 01 01:27:38
  TRACK 72 AUDIO
    TITLE "0:"
    INDEX 01 01:29:56
